# xmcd CD database file
#
# Track frame offsets:
#	150
#	25866
#	46004
#	62674
#	82189
#	100155
#	118361
#	133926
#	158538
#	177319
#	197795
#	215777
#	252463
#	267934
#	290003
#
# Disc length: 4118 seconds
#
# Revision: 1
# Processed by: cddbd v1.4PL0 Copyright (c) Steve Scherf et al.
# Submitted via: CDex 1.40Beta9
#
DISCID=e610140f
DTITLE=K-Ci and JoJo - X
DYEAR=1900
DGENRE=R&B
TTITLE0=Honest Lover
TTITLE1=Wanna Do You Right
TTITLE2=Get Back
TTITLE3=Crazy
TTITLE4=Game Face
TTITLE5=Thug N Me Thug N You
TTITLE6=If It's Going To Work
TTITLE7=All The Things I Should Have Known
TTITLE8=I Just Can't Find The Words
TTITLE9=Something Inside Of Me
TTITLE10=One Last Time
TTITLE11=Suicide
TTITLE12=Ooh Yeah
TTITLE13=I Just Can't Leave
TTITLE14=Crazy Remix
EXTD=ID3G: 14
EXTT0=
EXTT1=
EXTT2=
EXTT3=
EXTT4=
EXTT5=
EXTT6=
EXTT7=
EXTT8=
EXTT9=
EXTT10=
EXTT11=
EXTT12=
EXTT13=
EXTT14=
PLAYORDER=
